# xmcd
#
# Track frame offsets: 
#        150
#        18695
#        34252
#        54439
#        74757
#        97022
#        110952
#        131838
#        144821
#        163414
#        184230
#        209847
#        231265
#        264134
#        285368
#
# Disc length: 4172 seconds
#
# Revision: 0
# Processed by: cddbd v1.5.2PL0 Copyright (c) Steve Scherf et al.
# Submitted via: ExactAudioCopy v1.0b4
#
DISCID=ef104a0f
DTITLE=R.L. Burnside - Live at The Grove, University of Mississippi (2
DTITLE=000.08.27)
DYEAR=2000
DGENRE=Blues
TTITLE0=Po Black Maddie
TTITLE1=Long Haired Doney
TTITLE2=Shake 'Em Down
TTITLE3=Meet Me at the Bottom
TTITLE4=I Feel So Good
TTITLE5=Skinny Woman
TTITLE6=Walkin' Blues
TTITLE7=tellin jokes
TTITLE8=Bad Luck
TTITLE9=Gone to My Herd
TTITLE10=Goin Down South
TTITLE11=Alice Mae
TTITLE12=Dust My Broom
TTITLE13=Goin' Away Baby
TTITLE14=Let My Baby Ride
EXTD=
EXTT0=
EXTT1=
EXTT2=
EXTT3=
EXTT4=
EXTT5=
EXTT6=
EXTT7=
EXTT8=
EXTT9=
EXTT10=
EXTT11=
EXTT12=
EXTT13=
EXTT14=
PLAYORDER=
